# AST/ASF file generated using VICON BodyLanguage
# -----------------------------------------------
:version 1.10
:name VICON
:units
  mass 1.0
  length 0.45
  angle deg
:documentation
   .ast/.asf automatically generated from VICON data using
   VICON BodyBuilder and BodyLanguage model FoxedUp or BRILLIANT.MOD
:root
   order TX TY TZ RX RY RZ
   axis XYZ
   position 0 0 0  
   orientation 0 0 0 
:bonedata
  begin
     id 1 
     name lhipjoint
     direction 0.662698 -0.695252 0.27831 
     length 2.53073 
     axis 0 0 0  XYZ
  end
  begin
     id 2 
     name lfemur
     direction 0.34202 -0.939693 0  
     length 7.16147  
     axis 0 0 20  XYZ
    dof rx ry rz
    limits (-160.0 20.0)
           (-70.0 70.0)
           (-60.0 70.0)
  end
  begin
     id 3 
     name ltibia
     direction 0.34202 -0.939693 0   
     length 7.63967   
     axis 0 0 20   XYZ
    dof rx
    limits (-10.0 170.0)
  end
  begin
     id 4 
     name lfoot
     direction 0.0938457 -0.257721 0.961651   
     length 1.89793   
     axis -90 7.62852e-016 20   XYZ
    dof rx rz
    limits (-45.0 90.0)
           (-70.0 20.0)
  end
  begin
     id 5 
     name ltoes
     direction -0.00116841 -0.0030592 0.999995   
     length 0.955649   
     axis -90 7.62852e-016 20   XYZ
    dof rx
    limits (-90.0 20.0)
  end
  begin
     id 6 
     name rhipjoint
     direction -0.649445 -0.705948 0.282592   
     length 2.49238  
     axis 0 0 0  XYZ 
  end
  begin
     id 7 
     name rfemur
     direction -0.34202 -0.939693 0   
     length 6.90728   
     axis 0 0 -20   XYZ
    dof rx ry rz
    limits (-160.0 20.0)
           (-70.0 70.0)
           (-70.0 60.0)
  end
  begin
     id 8 
     name rtibia
     direction -0.34202 -0.939693 0   
     length 7.72868   
     axis 0 0 -20   XYZ
    dof rx
    limits (-10.0 170.0)
 end
 begin
     id 9 
     name rfoot
     direction -0.0920068 -0.252865 0.963117   
     length 1.97476  
     axis -90 -7.62852e-016 -20   XYZ
    dof rx rz
    limits (-45.0 90.0)
           (-20.0 70.0)
  end
  begin
     id 10 
     name rtoes
     direction 0.000391322 0.00230649 0.999997   
     length 0.992641   
     axis -90 -7.62852e-016 -20   XYZ
    dof rx
    limits (-90.0 20.0)
  end
  begin
     id 11 
     name lowerback
     direction -0.00875327 0.998321 -0.0572635   
     length 2.20024   
     axis 0 0 0   XYZ
    dof rx ry rz
    limits (-20.0 45.0)
           (-30.0 30.0)
           (-30.0 30.0)
  end
  begin
     id 12 
     name upperback
     direction 0.00753931 0.999972 -0.000360425   
     length 2.20538   
     axis 0 0 0   XYZ
    dof rx ry rz
    limits (-20.0 45.0)
           (-30.0 30.0)
           (-30.0 30.0)
  end
  begin
     id 13 
     name thorax
     direction 0.0117767 0.999601 0.0256663   
     length 2.21508   
     axis 0 0 0   XYZ
    dof rx ry rz
    limits (-20.0 45.0)
           (-30.0 30.0)
           (-30.0 30.0)
  end
  begin
     id 14 
     name lowerneck
     direction 0.060228 0.994909 0.0807986   
     length 1.7607   
     axis 0 0 0   XYZ
    dof rx ry rz
    limits (-20.0 45.0)
           (-30.0 30.0)
           (-30.0 30.0)
  end
  begin
     id 15 
     name upperneck
     direction -0.0563647 0.959594 -0.275685   
     length 1.75612   
     axis 0 0 0   XYZ
    dof rx ry rz
    limits (-20.0 45.0)
           (-30.0 30.0)
           (-30.0 30.0)
  end
  begin
     id 16
     name head
     direction -0.0161544 0.99458 -0.102714  
     length 1.79288  
     axis 0 0 0   XYZ
    dof rx ry rz
    limits (-20.0 45.0)
           (-30.0 30.0)
           (-30.0 30.0)
  end
  begin
     id 17 
     name lclavicle
     direction 0.93913 0.332189 -0.087669  
     length 3.52087  
     axis 0 0 0   XYZ
    dof ry rz
    limits (-20.0 10.0)
           (0.0 20.0)
  end
  begin
     id 18 
     name lhumerus
     direction 1 -4.48974e-011 -2.70836e-027   
     length 5.35289   
     axis -180 -30 -90   XYZ
    dof rx ry rz
    limits (-60.0 90.0)
           (-90.0 90.0)
           (-90.0 90.0)
  end
  begin
     id 19
     name lradius
     direction 1 -4.48961e-011 -9.76021e-027   
     length 3.27727   
     axis -180 -30 -90   XYZ
    dof rx
    limits (-10.0 170.0)
  end
  begin
     id 20
     name lwrist
     direction 1 -4.49103e-011 -2.23668e-026   
     length 1.63864   
     axis 1.44924e-014 90 90   XYZ
    dof ry
    limits (-180.0 0.0)
 end
  begin
     id 21 
     name lhand
     direction 1 3.0697e-005 0.000161777   
     length 0.54443   
     axis 2.85318e-014 90 90   XYZ
    dof rx rz
    limits (-90.0 90.0)
           (-45.0 45.0)
  end
  begin
     id 22 
     name lfingers
     direction 1 -4.49027e-011 -8.9447e-026   
     length 0.438912   
     axis 5.70628e-014 90 90   XYZ
    dof rx
    limits (0.0 90.0)
  end
  begin
     id 23
     name lthumb
     direction 0.707058 2.6516e-005 0.707156   
     length 0.630274   
     axis -90 45 -3.53137e-014   XYZ
    dof rx rz
    limits (-45.0 45.0)
           (-45.0 45.0)
  end
  begin
     id 24 
     name rclavicle
     direction -0.95274 0.284984 -0.105215   
     length 3.43401  
     axis 0 0 0   XYZ 
    dof ry rz
    limits (-10.0 20.0)
           (-20.0 0.0)
  end
  begin
     id 25 
     name rhumerus
     direction -0.999999 -0.000575019 -0.00106829  
     length 5.52077   
     axis -180 30 90   XYZ
    dof rx ry rz
    limits (-90.0 60.0)
           (-90.0 90.0)
           (-90.0 90.0)
  end
  begin
     id 26 
     name rradius
     direction -1 -4.4879e-011 -6.35415e-027   
     length 3.32364   
     axis -180 30 90   XYZ
    dof rx
    limits (-10.0 170.0)
  end
  begin
     id 27 
     name rwrist
     direction -1 -4.49048e-011 -9.98542e-027   
     length 1.66182   
     axis 6.32482e-015 -90 -90   XYZ
    dof ry
    limits (-180.0 0.0)
  end
  begin
     id 28
     name rhand
     direction -1 -4.48978e-011 -1.99771e-026   
     length 0.732235   
     axis 1.27479e-014 -90 -90   XYZ
    dof rx rz
    limits (-90.0 90.0)
           (-45.0 45.0)
  end
  begin
     id 29
     name rfingers
     direction -1 -4.49144e-011 -3.99245e-026   
     length 0.590347   
     axis 2.5496e-014 -90 -90   XYZ
    dof rx
    limits (0.0 90.0)
  end
  begin
     id 30
     name rthumb
     direction -0.707107 -6.35121e-011 0.707107   
     length 0.847624   
     axis -90 -45 -2.82974e-014   XYZ
    dof rx rz
    limits (-45.0 45.0)
           (-45.0 45.0)
  end
:hierarchy
  begin
    root lhipjoint rhipjoint lowerback
    lhipjoint lfemur
    lfemur ltibia
    ltibia lfoot
    lfoot ltoes
    rhipjoint rfemur
    rfemur rtibia
    rtibia rfoot
    rfoot rtoes
    lowerback upperback
    upperback thorax
    thorax lowerneck lclavicle rclavicle
    lowerneck upperneck
    upperneck head
    lclavicle lhumerus
    lhumerus lradius
    lradius lwrist
    lwrist lhand lthumb
    lhand lfingers
    rclavicle rhumerus
    rhumerus rradius
    rradius rwrist
    rwrist rhand rthumb
    rhand rfingers
  end

#!OML:ASF G:\Work\Work\Patient Classification 1\Elijah\terrain1\Elijah.ASF
:FULLY-SPECIFIED
:DEGREES
1
root 5.92627 21.1307 -4.9466 12.0206 -2.56606 1.74826
lowerback 13.1599 1.77362 -3.94473
upperback 2.09821 1.63104 -2.68329
thorax -5.19779 0.847963 -0.879367
lowerneck -19.5814 9.98314 11.7895
upperneck 18.6977 13.7945 -14.2265
head 11.1845 5.623 -4.81714
rclavicle -1.45113e-014 1.70955e-014
rhumerus -39.7 7.23252 -89.6081
rradius 55.1657
rwrist -9.60547
rhand -16.0712 23.2368
rfingers 7.12502
rthumb 10.1315 -6.49929
lclavicle -1.45113e-014 1.70955e-014
lhumerus -30.1463 -8.6694 81.7847
lradius 86.0333
lwrist 13.2844
lhand -22.5973 22.3776
lfingers 7.12502
lthumb 3.83199 52.3229
rfemur -41.1285 -3.67865 20.702
rtibia 87.5603
rfoot 9.69693 0.0411374
rtoes -17.5632
lfemur -44.0691 -10.1945 -21.0707
ltibia 56.7397
lfoot -23.8213 -4.25331
ltoes -7.1373
2
root 5.9264 21.2052 -4.84065 11.738 -2.75603 1.99347
lowerback 13.1476 1.70997 -4.55148
upperback 1.7894 1.46152 -2.45948
thorax -5.53603 0.784661 -0.280452
lowerneck -18.8153 9.9885 11.5905
upperneck 18.8096 13.9049 -14.0336
head 11.0634 5.71217 -4.71705
rclavicle 1.19271e-015 -7.55382e-015
rhumerus -40.2167 7.20287 -89.3411
rradius 54.6891
rwrist -9.08015
rhand -16.6734 24.011
rfingers 7.12502
rthumb 9.55045 -5.75256
lclavicle 1.19271e-015 -7.55382e-015
lhumerus -31.2971 -8.45494 82.1459
lradius 86.664
lwrist 12.8266
lhand -22.7081 20.8661
lfingers 7.12502
lthumb 3.72498 50.8133
rfemur -42.7854 -3.94064 20.6093
rtibia 89.5929
rfoot 8.45986 -0.0925977
rtoes -18.487
lfemur -42.4643 -10.2873 -21.4544
ltibia 55.239
lfoot -23.6526 -4.16196
ltoes -5.88395
3
root 5.95164 21.3042 -4.69815 10.5884 -1.15821 2.72733
lowerback 13.7232 1.15922 -4.20088
upperback 2.38328 0.767511 -2.61165
thorax -5.19663 0.428056 -0.514552
lowerneck -20.3836 10.1787 11.1824
upperneck 19.5456 14.0973 -13.4644
head 11.576 5.73886 -4.36703
rclavicle -7.35503e-015 9.14409e-015
rhumerus -39.518 6.31783 -89.0353
rradius 53.8337
rwrist -8.73065
rhand -17.3645 24.9492
rfingers 7.12502
rthumb 8.88366 -4.8438
lclavicle -7.35503e-015 9.14409e-015
lhumerus -30.8757 -8.99291 82.2367
lradius 87.0796
lwrist 12.8376
lhand -22.5129 21.7204
lfingers 7.12502
lthumb 3.91345 51.6642
rfemur -42.6094 -6.31199 19.969
rtibia 91.1558
rfoot 6.22698 0.0325079
rtoes -22.064
lfemur -39.6559 -12.0157 -22.4186
ltibia 53.6391
lfoot -23.5187 -4.00908
ltoes -6.502
4
root 5.9597 21.3687 -4.60379 10.4615 -0.96436 2.91828
lowerback 13.4939 1.03262 -4.26613
upperback 2.17682 0.598989 -2.57721
thorax -5.28608 0.35009 -0.41027
lowerneck -20.0997 10.363 10.984
upperneck 19.7769 14.3872 -13.112
head 11.5991 5.90018 -4.15846
rclavicle 1.64991e-014 -1.27222e-014
rhumerus -39.974 5.85111 -88.883
rradius 53.3317
rwrist -8.71759
rhand -17.5905 24.9868
rfingers 7.12502
rthumb 8.6655 -4.8153
lclavicle 1.64991e-014 -1.27222e-014
lhumerus -31.4172 -9.30725 82.4511
lradius 87.6329
lwrist 12.9213
lhand -22.0975 23.7164
lfingers 7.12502
lthumb 4.31458 53.6524
rfemur -44.3961 -6.95778 19.9517
rtibia 92.8392
rfoot 5.49355 -0.235639
rtoes -21.8168
lfemur -38.3024 -12.2721 -22.7986
ltibia 52.2004
lfoot -23.2832 -3.18098
ltoes -10.8546
5
root 5.95615 21.4318 -4.51513 10.6602 -1.8938 2.94813
lowerback 13.3224 1.36228 -4.47528
upperback 2.1924 1.01363 -2.59595
thorax -5.18834 0.554831 -0.382799
lowerneck -21.3292 10.3084 10.9496
upperneck 19.9645 14.2206 -13.0828
head 11.8756 5.76534 -4.13973
rclavicle -6.16232e-015 -3.53837e-014
rhumerus -39.5783 5.15057 -88.4803
rradius 53.1474
rwrist -8.86346
rhand -17.1433 23.9928
rfingers 7.12502
rthumb 9.0971 -5.79101
lclavicle -6.16232e-015 -3.53837e-014
lhumerus -30.8417 -9.76193 82.5538
lradius 88.0674
lwrist 13.3207
lhand -21.7106 26.1341
lfingers 7.12502
lthumb 4.68825 56.0622
rfemur -46.9293 -6.31505 20.0408
rtibia 94.3437
rfoot 5.54968 -0.773128
rtoes -18.112
lfemur -37.3938 -11.7056 -22.9854
ltibia 50.742
lfoot -22.9615 -2.70089
ltoes -11.0969
6
root 5.96788 21.5165 -4.40124 10.0304 -0.85307 3.23111
lowerback 13.8472 0.911978 -4.37709
upperback 2.07225 0.404187 -2.44101
thorax -5.58848 0.262993 -0.175907
lowerneck -20.548 10.262 11.5353
upperneck 19.7961 14.1622 -13.5931
head 11.7518 5.76616 -4.4586
rclavicle -5.56597e-015 -1.74931e-014
rhumerus -40.0772 4.95037 -88.1889
rradius 52.616
rwrist -8.68884
rhand -16.8793 23.7571
rfingers 7.12502
rthumb 9.3518 -6.01543
lclavicle -5.56597e-015 -1.74931e-014
lhumerus -31.537 -9.88609 82.8205
lradius 88.0102
lwrist 13.0677
lhand -21.5 24.0719
lfingers 7.12502
lthumb 4.89154 53.9954
rfemur -47.6748 -7.73407 19.9288
rtibia 95.4541
rfoot 4.28294 -1.20371
rtoes -15.9686
lfemur -35.5568 -12.8399 -23.3092
ltibia 49.3455
lfoot -22.6004 -3.18883
ltoes -8.10283
7
root 5.97666 21.5919 -4.28139 9.45211 -0.36688 3.59249
lowerback 14.0372 0.618129 -4.61462
upperback 1.99351 -0.0251617 -2.29226
thorax -5.76368 0.0631508 0.191897
lowerneck -19.6445 10.3987 11.9477
upperneck 19.4881 14.4247 -14.1151
head 11.5875 5.90702 -4.69006
rclavicle 7.15625e-015 -7.15625e-015
rhumerus -40.3817 4.94364 -87.9049
rradius 51.537
rwrist -7.94104
rhand -17.3714 24.6687
rfingers 7.12502
rthumb 8.87694 -5.12454
lclavicle 7.15625e-015 -7.15625e-015
lhumerus -32.4073 -9.79404 83.1413
lradius 88.2265
lwrist 12.6687
lhand -21.4968 23.1891
lfingers 7.12502
lthumb 4.89462 53.1126
rfemur -48.2743 -8.57739 19.5579
rtibia 96.3606
rfoot 2.1618 -1.47083
rtoes -17.421
lfemur -33.6177 -13.4413 -23.8834
ltibia 47.9399
lfoot -22.6 -3.19665
ltoes -8.2835
8
root 5.99416 21.6433 -4.17262 9.68767 -1.60461 3.7446
lowerback 13.2333 0.996912 -4.7607
upperback 1.97019 0.496116 -2.44786
thorax -5.3635 0.312886 0.0233608
lowerneck -20.7232 10.5801 11.144
upperneck 20.075 14.6327 -13.1101
head 11.8782 5.98572 -4.11725
rclavicle -5.36719e-015 1.59028e-015
rhumerus -40.2082 4.3008 -87.6738
rradius 51.2237
rwrist -7.9991
rhand -17.4898 24.0217
rfingers 7.12502
rthumb 8.76273 -5.77643
lclavicle -5.36719e-015 1.59028e-015
lhumerus -32.44 -10.3145 83.2332
lradius 88.3494
lwrist 12.3329
lhand -21.4989 22.2649
lfingers 7.12502
lthumb 4.89262 52.1884
rfemur -50.444 -7.65114 19.2369
rtibia 97.2507
rfoot -0.834455 -1.30423
rtoes -24.0794
lfemur -32.7238 -12.9172 -24.2801
ltibia 46.6317
lfoot -22.6804 -2.63156
ltoes -7.55004
9
root 6.00333 21.7039 -4.06318 9.53254 -1.48137 3.97342
lowerback 13.0633 0.934433 -4.71211
upperback 2.0052 0.432245 -2.48336
thorax -5.22958 0.27807 -0.0270508
lowerneck -20.4976 10.5817 10.9774
upperneck 19.7822 14.586 -12.8149
head 11.6734 6.00507 -3.99292
rclavicle 1.49089e-015 3.18055e-014
rhumerus -40.1399 3.68546 -87.4098
rradius 50.7352
rwrist -8.07205
rhand -17.4808 23.8352
rfingers 7.12502
rthumb 8.77142 -5.96255
lclavicle 1.49089e-015 3.18055e-014
lhumerus -32.5843 -10.7906 83.3375
lradius 88.3937
lwrist 12.0097
lhand -21.2629 21.3875
lfingers 7.12502
lthumb 5.12049 51.3057
rfemur -51.8312 -8.04631 19.0271
rtibia 97.8652
rfoot -0.17763 -2.00331
rtoes -14.5451
lfemur -31.4544 -13.3198 -24.6176
ltibia 45.3857
lfoot -22.547 -2.62317
ltoes -5.1341
10
root 5.99745 21.7451 -3.96885 9.28018 -1.89675 4.1231
lowerback 13.2052 0.901362 -5.40726
upperback 1.59635 0.281575 -2.11002
thorax -5.7412 0.235965 0.776481
lowerneck -19.949 10.5823 11.0482
upperneck 20.2184 14.7243 -12.9667
head 11.7747 6.06802 -4.05828
rclavicle 2.28602e-015 2.66371e-014
rhumerus -40.7859 4.16349 -87.0294
rradius 50.1355
rwrist -8.06181
rhand -17.156 23.4622
rfingers 7.12502
rthumb 9.08485 -6.32214
lclavicle 2.28602e-015 2.66371e-014
lhumerus -33.8954 -10.1125 83.7596
lradius 88.6177
lwrist 11.1445
lhand -20.1864 22.1755
lfingers 7.12502
lthumb 6.15986 52.0659
rfemur -53.3668 -7.63916 18.9331
rtibia 98.3969
rfoot -2.48894 -2.23609
rtoes -18.5295
lfemur -30.1884 -13.0512 -24.9512
ltibia 44.2906
lfoot -22.5074 -2.22278
ltoes -5.82452
11
root 5.99171 21.7838 -3.86789 9.04268 -2.04515 4.11127
lowerback 13.1266 0.939761 -5.42842
upperback 1.72283 0.347685 -2.00326
thorax -5.56744 0.264342 0.891374
lowerneck -20.8429 10.6555 10.7924
upperneck 20.58 14.7964 -12.6827
head 12.0439 6.06182 -3.87117
rclavicle -5.56597e-015 -1.59028e-015
rhumerus -40.4961 3.66033 -86.6906
rradius 49.5478
rwrist -7.8041
rhand -16.8681 22.466
rfingers 7.12502
rthumb 9.36263 -7.30604
lclavicle -5.56597e-015 -1.59028e-015
lhumerus -33.7888 -10.5211 83.9544
lradius 88.3819
lwrist 11.408
lhand -19.7204 22.9277
lfingers 7.12502
lthumb 6.60971 52.8045
rfemur -54.5582 -7.34956 18.9448
rtibia 98.615
rfoot -4.02925 -2.6331
rtoes -19.3963
lfemur -28.898 -12.7648 -25.1225
ltibia 43.171
lfoot -22.4463 -2.07117
ltoes -7.04212
12
root 5.99367 21.8232 -3.758 8.8 -1.94788 4.35731
lowerback 12.8569 0.874461 -5.54512
upperback 1.90486 0.277095 -1.95864
thorax -5.22176 0.222545 1.02082
lowerneck -20.682 10.7646 11.2091
upperneck 20.1261 14.9112 -13.1788
head 11.9418 6.10817 -4.09781
rclavicle 1.19271e-014 -2.20651e-014
rhumerus -40.1129 3.19184 -86.334
rradius 48.7026
rwrist -7.54444
rhand -16.5918 21.6057
rfingers 7.12502
rthumb 9.62919 -8.15421
lclavicle 1.19271e-014 -2.20651e-014
lhumerus -33.347 -10.8469 84.0554
lradius 87.8444
lwrist 11.0106
lhand -20.5677 21.6896
lfingers 7.12502
lthumb 5.79172 51.5905
rfemur -55.5206 -7.46256 18.5086
rtibia 98.7391
rfoot -5.32483 -2.66647
rtoes -16.4533
lfemur -27.6245 -12.6965 -25.542
ltibia 42.0607
lfoot -22.267 -2.57192
ltoes -4.88997
13
root 5.99598 21.8723 -3.64429 8.50048 -1.98753 4.49908
lowerback 12.768 0.839016 -5.59458
upperback 1.93467 0.23505 -1.89988
thorax -5.13886 0.201044 1.11866
lowerneck -21.1155 10.5466 11.618
upperneck 20.5322 14.5335 -13.3693
head 12.1808 5.91894 -4.30698
rclavicle 1.2424e-014 2.92213e-014
rhumerus -39.9671 2.76377 -86.0149
rradius 47.8283
rwrist -7.48972
rhand -16.2781 21.7901
rfingers 7.12502
rthumb 9.93184 -7.95566
lclavicle 1.2424e-014 2.92213e-014
lhumerus -33.3344 -11.0141 84.1647
lradius 87.4483
lwrist 10.133
lhand -19.9122 22.0539
lfingers 7.12502
lthumb 6.42456 51.9365
rfemur -56.6669 -7.43703 18.407
rtibia 98.2834
rfoot -5.7821 -3.12712
rtoes -19.1036
lfemur -26.2343 -12.5629 -25.8736
ltibia 40.8893
lfoot -22.1365 -2.7889
ltoes -3.5501
14
root 5.99913 21.9092 -3.53846 8.18663 -1.90995 4.67799
lowerback 13.0699 0.800241 -5.60572
upperback 1.77641 0.152693 -1.88272
thorax -5.46882 0.170895 1.15362
lowerneck -20.6539 10.5923 11.6676
upperneck 20.4812 14.5599 -13.1461
head 12.0567 5.9835 -4.23805
rclavicle 3.8266e-015 -9.34288e-015
rhumerus -40.3224 2.33136 -85.7715
rradius 47.3023
rwrist -7.54986
rhand -16.1776 21.785
rfingers 7.12502
rthumb 10.0288 -7.95609
lclavicle 3.8266e-015 -9.34288e-015
lhumerus -33.9524 -11.2906 84.347
lradius 87.4153
lwrist 9.26455
lhand -18.6033 23.3393
lfingers 7.12502
lthumb 7.68807 53.1795
rfemur -57.6596 -7.56652 18.1989
rtibia 97.7816
rfoot -6.46757 -3.49633
rtoes -21.0155
lfemur -24.8345 -12.592 -26.2426
ltibia 39.7102
lfoot -22.0491 -2.68129
ltoes -4.10395
15
root 6.00798 21.9409 -3.42944 7.90132 -1.74809 4.99626
lowerback 13.2302 0.772687 -5.65746
upperback 1.76246 0.0950554 -1.90153
thorax -5.56899 0.146126 1.17185
lowerneck -20.9673 10.6354 11.6255
upperneck 20.6761 14.5676 -12.9262
head 12.1671 5.9901 -4.13933
rclavicle 6.95746e-016 -7.95139e-016
rhumerus -40.5185 1.8113 -85.4984
rradius 46.8036
rwrist -7.92798
rhand -15.909 20.7243
rfingers 7.12502
rthumb 10.2879 -9.00411
lclavicle 6.95746e-016 -7.95139e-016
lhumerus -34.3149 -11.7371 84.6245
lradius 87.2886
lwrist 8.5794
lhand -16.6575 25.7973
lfingers 7.12502
lthumb 9.56582 55.5602
rfemur -58.5284 -7.80422 17.6845
rtibia 97.1464
rfoot -7.31967 -3.59831
rtoes -21.5269
lfemur -23.4667 -12.7687 -26.7685
ltibia 38.5633
lfoot -21.9123 -2.75895
ltoes -3.66949
